PathFileType	4	(X/Y/Z)	C:\Documents and Settings\mvidt\Desktop\Forward_reach_ACS_12-5-11\acs_static-redo2.trc
DataRate	CameraRate	NumFrames	NumMarkers	Units	OrigDataRate	OrigDataStartFrame	OrigNumFrames
200.00	200.00	      22	10	mm	200.00	501	      2000
Frame#	Time	R.Clavicle			C7			R.Shoulder			R.Bicep			R.Elbow.Lateral			R.Forearm			R.Radius			Handle			R.Elbow.Medial			R.Ulna			
		X1	Y1	Z1	X2	Y2	Z2	X3	Y3	Z3	X4	Y4	Z4	X5	Y5	Z5	X6	Y6	Z6	X7	Y7	Z7	X8	Y8	Z8	X9	Y9	Z9	X10	Y10	Z10	

501	2.500	-255.35086	403.90308	328.13486	-392.47705	402.73474	420.13815	-262.65182	250.64915	328.75543	-99.14487	262.70053	280.16998	-5.97184	230.78062	214.24623	36.72323	281.36441	312.52240	131.56149	364.57172	417.93936	198.81320	419.10947	514.09033	-7.90209	314.43381	184.37929	193.26906	313.09732	381.66025	
502	2.505	-254.92645	403.80560	328.06097	-392.47705	402.73474	420.13815	-262.65182	250.64915	328.75543	-98.66918	262.35403	280.32687	-5.99965	230.77794	214.24513	36.34952	281.55719	312.29010	131.48999	364.50870	417.85309	198.81320	419.10947	514.09033	-7.90209	314.43381	184.37929	193.26906	313.09732	381.66025	
503	2.510	-255.35086	403.90308	328.13486	-392.47705	402.73474	420.13815	-262.76202	250.70343	328.65881	-98.66918	262.35403	280.32687	-6.02745	230.77527	214.24403	36.34952	281.55719	312.29010	131.58560	364.48862	417.71790	198.81320	419.10947	514.09033	-7.90209	314.43381	184.37929	192.88156	313.60495	381.39697	
504	2.515	-255.35086	403.90308	328.13486	-392.47705	402.73474	420.13815	-262.76202	250.70343	328.65881	-98.66918	262.35403	280.32687	-6.05525	230.77260	214.24294	36.34952	281.55719	312.29010	131.58560	364.48862	417.71790	198.79425	419.20755	514.02161	-7.90209	314.43381	184.37929	192.88156	313.60495	381.39697	
505	2.520	-255.35086	403.90308	328.13486	-392.47705	402.73474	420.13815	-262.76202	250.70343	328.65881	-98.66918	262.35403	280.32687	-6.08305	230.76991	214.24184	36.34952	281.55719	312.29010	131.58560	364.48862	417.71790	198.79425	419.20755	514.02161	-8.07399	314.74710	184.50537	192.88156	313.60495	381.39697	
506	2.525	-255.35086	403.90308	328.13486	-392.47705	402.73474	420.13815	-262.76202	250.70343	328.65881	-99.14487	262.70053	280.16998	-6.11085	230.76724	214.24074	36.24817	281.16415	311.91962	131.58560	364.48862	417.71790	198.79425	419.20755	514.02161	-7.90209	314.43381	184.37929	192.88156	313.60495	381.39697	
507	2.530	-255.35086	403.90308	328.13486	-392.63083	402.60562	420.09528	-262.76202	250.70343	328.65881	-99.14487	262.70053	280.16998	-6.13865	230.76457	214.23964	36.24817	281.16415	311.91962	131.77863	364.39197	417.60629	198.66209	419.34616	513.91956	-7.86891	314.42328	184.19304	192.88156	313.60495	381.39697	
508	2.535	-254.93088	404.16675	327.84906	-392.63083	402.60562	420.09528	-262.76202	250.70343	328.65881	-99.14487	262.70053	280.16998	-6.16645	230.76189	214.23854	36.24817	281.16415	311.91962	131.77863	364.39197	417.60629	198.51244	419.45331	513.79468	-8.15140	314.55438	184.18295	192.88156	313.60495	381.39697	
509	2.540	-254.93088	404.16675	327.84906	-392.63083	402.60562	420.09528	-262.76202	250.70343	328.65881	-99.14487	262.70053	280.16998	-6.19425	230.75922	214.23744	36.34952	281.55719	312.29010	131.77863	364.39197	417.60629	198.76527	419.28488	513.94855	-8.15140	314.55438	184.18295	192.88156	313.60495	381.39697	
510	2.545	-254.93088	404.16675	327.84906	-392.63083	402.60562	420.09528	-262.76202	250.70343	328.65881	-99.14487	262.70053	280.16998	-6.22205	230.75653	214.23634	36.34952	281.55719	312.29010	131.58560	364.48862	417.71790	198.76324	419.20102	513.70111	-8.25445	314.45270	184.05296	192.88156	313.60495	381.39697	
511	2.550	-254.93088	404.16675	327.84906	-392.63083	402.60562	420.09528	-262.76202	250.70343	328.65881	-99.14487	262.70053	280.16998	-6.24985	230.75388	214.23524	36.34952	281.55719	312.29010	131.58560	364.48862	417.71790	198.80255	419.19342	513.56964	-8.25445	314.45270	184.05296	193.03510	313.18304	380.93042	
512	2.555	-255.35526	404.26422	327.92291	-392.63083	402.60562	420.09528	-262.76202	250.70343	328.65881	-99.14487	262.70053	280.16998	-6.27765	230.75117	214.23415	36.34952	281.55719	312.29010	131.77863	364.39197	417.60629	198.63853	419.40582	513.72693	-8.25445	314.45270	184.05296	193.03510	313.18304	380.93042	
513	2.560	-254.93088	404.16675	327.84906	-392.63083	402.60562	420.09528	-262.76202	250.70343	328.65881	-99.14487	262.70053	280.16998	-6.30545	230.74852	214.23305	36.34952	281.55719	312.29010	131.77863	364.39197	417.60629	198.48401	419.35675	513.63330	-8.25445	314.45270	184.05296	193.03510	313.18304	380.93042	
514	2.565	-254.93088	404.16675	327.84906	-392.63083	402.60562	420.09528	-262.76202	250.70343	328.65881	-98.70480	262.70190	280.54056	-6.33325	230.74583	214.23195	36.34952	281.55719	312.29010	131.94524	364.13040	417.38953	198.37337	419.41895	513.61554	-8.25445	314.45270	184.05296	193.03510	313.18304	380.93042	
515	2.570	-254.93088	404.16675	327.84906	-392.63083	402.60562	420.09528	-262.76202	250.70343	328.65881	-98.70480	262.70190	280.54056	-6.36106	230.74316	214.23085	36.34952	281.55719	312.29010	131.94524	364.13040	417.38953	198.48401	419.35675	513.63330	-8.25445	314.45270	184.05296	193.03510	313.18304	380.93042	
516	2.575	-254.93088	404.16675	327.84906	-392.63083	402.60562	420.09528	-262.76202	250.70343	328.65881	-98.70480	262.70190	280.54056	-6.38886	230.74048	214.22975	36.53505	281.05490	312.12457	131.94524	364.13040	417.38953	198.48401	419.35675	513.63330	-8.25445	314.45270	184.05296	192.78088	313.61996	381.02591	
517	2.580	-254.93088	404.16675	327.84906	-392.63083	402.60562	420.09528	-262.76202	250.70343	328.65881	-98.70480	262.70190	280.54056	-6.41666	230.73782	214.22867	36.34952	281.55719	312.29010	131.94524	364.13040	417.38953	198.70755	419.22418	513.70929	-8.44480	314.71188	183.92902	192.78088	313.61996	381.02591	
518	2.585	-254.93088	404.16675	327.84906	-392.63083	402.60562	420.09528	-262.76202	250.70343	328.65881	-98.70480	262.70190	280.54056	-6.44446	230.73512	214.22755	36.34952	281.55719	312.29010	131.90971	364.21045	417.29462	198.70755	419.22418	513.70929	-8.44480	314.71188	183.92902	192.39542	314.09250	380.68008	
519	2.590	-255.35526	404.26422	327.92291	-392.63083	402.60562	420.09528	-262.76202	250.70343	328.65881	-99.14487	262.70053	280.16998	-6.47226	230.73247	214.22647	36.34952	281.55719	312.29010	131.90971	364.21045	417.29462	198.70755	419.22418	513.70929	-8.44480	314.71188	183.92902	192.39542	314.09250	380.68008	
520	2.595	-254.93088	404.16675	327.84906	-392.71518	402.64594	419.96951	-262.76202	250.70343	328.65881	-99.14487	262.70053	280.16998	-6.50006	230.72978	214.22536	35.98551	281.64520	311.99524	131.90971	364.21045	417.29462	198.64832	419.04025	513.63159	-8.44480	314.71188	183.92902	192.39542	314.09250	380.68008	
521	2.600	-254.93088	404.16675	327.84906	-392.63083	402.60562	420.09528	-262.76202	250.70343	328.65881	-99.15186	262.31583	279.89487	-6.52786	230.72711	214.22426	35.98551	281.64520	311.99524	131.90971	364.21045	417.29462	198.76927	418.86618	513.48328	-8.65700	314.65021	183.72389	192.71594	313.76028	381.12466	
522	2.605	-254.92645	403.80560	328.06097	-392.63083	402.60562	420.09528	-262.76202	250.70343	328.65881	-99.14487	262.70053	280.16998	-6.55566	230.72444	214.22316	35.98551	281.64520	311.99524	131.94629	363.82053	416.91772	198.46265	419.00793	513.46613	-8.65700	314.65021	183.72389	192.39542	314.09250	380.68008	
